<svg xmlns="http://www.w3.org/2000/svg" xmlns:xlink="http://www.w3.org/1999/xlink" xmlns:fi="http://pattern.flaticon.com/" x="0" y="0" width="1440" height="720" viewBox="0 0 2964.705882352941 1482.3529411764705"><rect x="0px" y="0px" width="100%" height="100%" opacity="1" fill="#ffffff"/><defs><path d="m488 144h-120v-136c0-4.417969-3.582031-8-8-8h-352c-4.417969 0-8 3.582031-8 8v272c0 4.417969 3.582031 8 8 8h32.238281l-.476562 55.921875c-.015625 3.234375 1.90625 6.164063 4.878906 7.4375.992187.402344 2.050781.621094 3.121094.640625 2.101562.003906 4.117187-.832031 5.597656-2.320312l62.082031-61.679688h12.558594v136c0 4.417969 3.582031 8 8 8h32.238281l-.476562 55.921875c-.015625 3.234375 1.90625 6.164063 4.878906 7.4375.992187.402344 2.050781.621094 3.121094.640625 2.101562.003906 4.117187-.832031 5.597656-2.320312l62.082031-61.679688h244.558594c4.417969 0 8-3.582031 8-8v-272c0-4.417969-3.582031-8-8-8zm-375.839844 128c-2.128906-.019531-4.175781.816406-5.679687 2.320312l-50.558594 50.320313.398437-44.5625c.011719-4.433594-3.5625-8.046875-8-8.078125h-32.320312v-256h336v128h-216c-4.417969 0-8 3.582031-8 8v120zm367.839844 144h-239.839844c-2.128906-.019531-4.175781.816406-5.679687 2.320312l-50.558594 50.320313.398437-44.5625c.011719-4.433594-3.5625-8.046875-8-8.078125h-32.320312v-256h336zm0 0" transform="matrix(0.07473239472617747 0.014371613832701476 -0.014371613832701476 0.07473239472617747 -9.154415930068467 155.95969143865915)" id="L1_28"/><path d="M277.73,94.123c0,10.997-8.006,17.685-13.852,22.593c-2.214,1.859-6.335,5.251-6.324,6.518  c0.04,4.97-3.956,8.939-8.927,8.939c-0.025,0-0.05,0-0.075,0c-4.936,0-8.958-3.847-8.998-8.792  c-0.079-9.747,7.034-15.584,12.75-20.383c4.485-3.766,7.426-6.416,7.426-8.841c0-4.909-3.994-8.903-8.903-8.903  c-4.911,0-8.906,3.994-8.906,8.903c0,4.971-4.029,9-9,9s-9-4.029-9-9c0-14.834,12.069-26.903,26.904-26.903  C265.661,67.253,277.73,79.288,277.73,94.123z M248.801,140.481c-4.971,0-8.801,4.029-8.801,9v0.069  c0,4.971,3.831,8.966,8.801,8.966s9-4.064,9-9.035S253.772,140.481,248.801,140.481z M67.392,203.174c-4.971,0-9,4.029-9,9  s4.029,9,9,9h0.75c4.971,0,9-4.029,9-9s-4.029-9-9-9H67.392z M98.671,203.174c-4.971,0-9,4.029-9,9s4.029,9,9,9h0.749  c4.971,0,9-4.029,9-9s-4.029-9-9-9H98.671z M363,59.425v101.301c0,23.985-19.232,43.448-43.217,43.448H203.066  c-2.282,0-4.161-0.013-5.733-0.046c-1.647-0.034-3.501-0.047-4.224,0.033c-0.753,0.5-2.599,2.191-4.378,3.83  c-0.705,0.649-1.503,1.363-2.364,2.149l-33.022,30.098c-2.634,2.403-6.531,3.025-9.793,1.587c-3.262-1.439-5.552-4.669-5.552-8.234  v-95.417H43.72c-14.062,0-25.72,11.523-25.72,25.583v101.301c0,14.061,11.659,25.116,25.72,25.116h130.374  c2.245,0,4.345,1.031,6.003,2.545L207,317.523v-85.539c0-4.971,4.029-9,9-9s9,4.029,9,9v105.938c0,3.565-2.04,6.747-5.303,8.186  c-1.167,0.515-2.339,0.718-3.566,0.718c-2.204,0-4.378-0.905-6.069-2.449l-39.457-36.204H43.72c-23.986,0-43.72-19.13-43.72-43.116  V163.757c0-23.985,19.734-43.583,43.72-43.583H138V59.425c0-23.986,19.885-43.251,43.871-43.251h137.913  C343.768,16.174,363,35.439,363,59.425z M345,59.425c0-14.061-11.157-25.251-25.217-25.251H181.871  C167.81,34.174,156,45.364,156,59.425v69.833v83.934l18.095-16.353c0.838-0.765,1.777-1.465,2.462-2.097  c8.263-7.614,10.377-8.831,21.155-8.609c1.47,0.031,3.221,0.042,5.354,0.042h116.717c14.06,0,25.217-11.388,25.217-25.448V59.425z" transform="matrix(0.1652892529964447 0 0 0.1652892529964447 14 27)" id="L1_29"/><g transform="matrix(0.1171875 0 0 0.1171875 180 47)" id="L1_30"><circle cx="316" cy="136" r="10"/><circle cx="256" cy="136" r="10"/><circle cx="196" cy="136" r="10"/><path d="m296 317c0-22.056-17.944-40-40-40s-40 17.944-40 40 17.944 40 40 40 40-17.944 40-40zm-40 20c-11.028 0-20-8.972-20-20s8.972-20 20-20 20 8.972 20 20-8.972 20-20 20z"/><path d="m186 427v9c0 5.522 4.478 10 10 10h120c5.522 0 10-4.478 10-10v-9c0-38.598-31.402-70-70-70s-70 31.402-70 70zm70-50c27.235 0 49.454 21.891 49.99 49h-99.98c.536-27.109 22.755-49 49.99-49z"/><path d="m110 317c0-22.056-17.944-40-40-40s-40 17.944-40 40 17.944 40 40 40 40-17.944 40-40zm-40 20c-11.028 0-20-8.972-20-20s8.972-20 20-20 20 8.972 20 20-8.972 20-20 20z"/><path d="m10 446h120c5.522 0 10-4.478 10-10v-9c0-38.598-31.402-70-70-70s-70 31.402-70 70v9c0 5.522 4.478 10 10 10zm60-69c27.235 0 49.454 21.891 49.99 49h-99.98c.536-27.109 22.755-49 49.99-49z"/><path d="m482 317c0-22.056-17.944-40-40-40s-40 17.944-40 40 17.944 40 40 40 40-17.944 40-40zm-40 20c-11.028 0-20-8.972-20-20s8.972-20 20-20 20 8.972 20 20-8.972 20-20 20z"/><path d="m442 357c-38.598 0-70 31.402-70 70v9c0 5.522 4.478 10 10 10h120c5.522 0 10-4.478 10-10v-9c0-38.598-31.402-70-70-70zm-49.99 69c.536-27.109 22.755-49 49.99-49s49.454 21.891 49.99 49z"/><path d="m472 66h-171c-5.522 0-10 4.478-10 10s4.478 10 10 10h171c11.028 0 20 8.972 20 20v60c0 11.028-8.972 20-20 20h-30c-5.522 0-10 4.478-10 10v13.819l-45.528-22.764c-1.388-.694-2.919-1.055-4.472-1.055h-96c-2.652 0-5.195 1.054-7.071 2.929l-22.929 22.928-22.929-22.929c-1.876-1.874-4.419-2.928-7.071-2.928h-90c-1.553 0-3.084.361-4.472 1.056l-45.528 22.763v-13.819c0-5.522-4.478-10-10-10h-36c-11.028 0-20-8.972-20-20v-60c0-11.028 8.972-20 20-20h171c5.522 0 10-4.478 10-10s-4.478-10-10-10h-171c-22.056 0-40 17.944-40 40v60c0 22.056 17.944 40 40 40h26v20c0 3.466 1.795 6.685 4.743 8.507 2.948 1.821 6.629 1.986 9.729.438l57.888-28.945h83.497l27.071 27.071c3.906 3.904 10.236 3.904 14.143 0l27.072-27.071h89.497l57.889 28.944c3.092 1.547 6.776 1.387 9.729-.438 2.948-1.822 4.743-5.041 4.743-8.507v-20h20c22.056 0 40-17.944 40-40v-60c-.001-22.055-17.945-39.999-40.001-39.999z"/><circle cx="256" cy="76" r="10"/></g><g transform="matrix(0.12252399325370789 0 0 0.12252399325370789 9 262.99999925217287)" id="L1_31"><path d="M140,36.55c-24.9,0-45.2,20.3-45.2,45.2v179.8c0,24.9,20.3,45.2,45.2,45.2h202.6l57.1,66.1c3.5,4,8.4,6.3,13.7,6.3    c10,0,18.2-8.1,18.2-18.1v-54.2h12.9c24.9,0,45.2-20.3,45.2-45.2V81.75c0-24.9-20.3-45.2-45.2-45.2H140z M465.1,81.75v179.8    c0,11.4-9.3,20.7-20.7,20.7h-25.1c-6.8,0-12.3,5.5-12.3,12.3v49.3l-49.6-57.3c-2.3-2.7-5.7-4.2-9.3-4.2H140    c-11.4,0-20.7-9.3-20.7-20.7V81.75c0-11.4,9.3-20.7,20.7-20.7h304.4C455.8,61.05,465.1,70.35,465.1,81.75z"/><path d="M69.9,451.95c2.1,0.8,4.3,1.2,6.4,1.2c5.1,0,10.1-2.2,13.6-6.3l57.1-66.1h178.4c6.8,0,12.3-5.5,12.3-12.3    s-5.5-12.3-12.3-12.3h-184c-3.6,0-6.9,1.5-9.3,4.2l-49.5,57.5v-49.3c0-6.8-5.5-12.3-12.3-12.3H45.2c-11.4,0-20.7-9.3-20.7-20.7    v-179.8c0-11.4,9.3-20.7,20.7-20.7c6.8,0,12.3-5.5,12.3-12.3c0-6.8-5.5-12.2-12.3-12.2c-24.9,0-45.2,20.3-45.2,45.2v179.8    c0,24.9,20.3,45.2,45.2,45.2h12.9v54.2C58.1,442.65,62.7,449.35,69.9,451.95z"/><circle cx="292" cy="175" r="14"/><circle cx="243" cy="175" r="14"/><circle cx="341" cy="175" r="14"/></g><g transform="matrix(0.09003450105688231 -0.0116173549146293 0.0116173549146293 0.09003450105688231 107.97712487129303 141.92521058758322)" id="L1_32"><path d="m105 235.75c57.897 0 105-47.103 105-105s-47.103-105-105-105-105 47.103-105 105 47.103 105 105 105zm-39.108-41.032c9.393-11.785 23.758-18.967 39.108-18.967s29.715 7.182 39.108 18.967c-11.395 6.992-24.787 11.032-39.108 11.032s-27.714-4.04-39.108-11.032zm39.108-48.968c-8.271 0-15-6.729-15-15s6.729-15 15-15 15 6.729 15 15-6.729 15-15 15zm0-90c41.355 0 75 33.645 75 75 0 16.193-5.175 31.19-13.935 43.461-6.565-7.75-14.513-14.163-23.373-18.925 4.613-7.063 7.307-15.489 7.307-24.536 0-24.813-20.187-45-45-45s-45 20.187-45 45c0 9.048 2.693 17.474 7.307 24.537-8.859 4.762-16.808 11.174-23.372 18.924-8.759-12.271-13.934-27.269-13.934-43.461 0-41.355 33.645-75 75-75z"/><path d="m407 276.25c-57.897 0-105 47.103-105 105s47.103 105 105 105 105-47.103 105-105-47.103-105-105-105zm-39.108 168.968c9.393-11.785 23.758-18.967 39.108-18.967 15.351 0 29.715 7.182 39.108 18.967-11.395 6.992-24.787 11.032-39.108 11.032s-27.714-4.04-39.108-11.032zm39.108-48.968c-8.271 0-15-6.729-15-15s6.729-15 15-15 15 6.729 15 15-6.729 15-15 15zm61.065 28.461c-6.565-7.75-14.513-14.163-23.372-18.925 4.614-7.063 7.307-15.489 7.307-24.537 0-24.813-20.187-45-45-45s-45 20.187-45 45c0 9.048 2.693 17.473 7.307 24.536-8.859 4.762-16.808 11.174-23.373 18.925-8.759-12.27-13.934-27.268-13.934-43.46 0-41.355 33.645-75 75-75s75 33.645 75 75c0 16.193-5.175 31.19-13.935 43.461z"/><path d="m247 350.502v-56.251c0-8.284-6.716-15-15-15h-217c-8.284 0-15 6.716-15 15v174c0 8.284 6.716 15 15 15h217c8.284 0 15-6.716 15-15v-56.252l20.484-20.021c2.888-2.822 4.516-6.689 4.516-10.728s-1.628-7.905-4.516-10.728zm-25.485 44.455c-2.888 2.822-4.516 6.689-4.516 10.728v47.566h-186.999v-144h187v47.565c0 4.038 1.628 7.905 4.516 10.728l14.024 13.707z"/><path d="m512 220.752v-180.002c0-8.284-6.716-15-15-15h-217c-8.284 0-15 6.716-15 15v56.252l-20.484 20.021c-2.888 2.822-4.516 6.689-4.516 10.728s1.628 7.905 4.516 10.728l20.484 20.019v62.254c0 8.284 6.716 15 15 15h217c8.284 0 15-6.716 15-15zm-30-15h-187v-53.568c0-4.038-1.628-7.905-4.516-10.728l-14.024-13.706 14.024-13.707c2.888-2.822 4.516-6.689 4.516-10.728v-47.565h187z"/><path d="m340 116h96.889c8.284 0 15-6.716 15-15s-6.716-15-15-15h-96.889c-8.284 0-15 6.716-15 15s6.715 15 15 15z"/><path d="m340 176h96.889c8.284 0 15-6.716 15-15s-6.716-15-15-15h-96.889c-8.284 0-15 6.716-15 15s6.715 15 15 15z"/><circle cx="123" cy="381" r="15"/><ellipse cx="63px" cy="381px" rx="15px" ry="15px" transform="matrix(0.707 -0.707 0.707 0.707 -251.186 156.584)"/><ellipse cx="183px" cy="381px" rx="15px" ry="15px" transform="matrix(0.973 -0.23 0.23 0.973 -82.74 52.383)"/></g><g transform="matrix(0.1171875 0 0 0.1171875 207 249)" id="L1_33"><circle cx="502" cy="198" r="10"/><path d="m500.28 32.72c-7.55-7.56-17.59-11.72-28.28-11.72h-270c-10.69 0-20.73 4.16-28.28 11.72-7.56 7.55-11.72 17.59-11.72 28.28v160h-122c-22.056 0-40 17.944-40 40v220c0 3.88 2.245 7.41 5.758 9.056 1.354.634 2.802.944 4.241.944 2.296 0 4.571-.791 6.403-2.318l57.219-47.682h236.379c22.056 0 40-17.944 40-40v-122h88.38l57.22 47.68c1.79 1.5 4.07 2.32 6.39 2.32 1.48 0 2.91-.32 4.25-.94 3.5-1.64 5.76-5.2 5.76-9.06v-75.53c0-5.52-4.49-10-10-10s-10 4.48-10 10v54.18l-43.6-36.33c-1.82-1.52-4.03-2.32-6.4-2.32h-92.051c-1.046-21.13-18.564-38-39.949-38h-128v-160c.02-11.01 8.99-19.98 20-20h270c11.01.02 19.98 8.99 20 20v92.47c0 5.51 4.49 10 10 10s10-4.49 10-10v-92.47c0-10.69-4.16-20.73-11.72-28.28zm-190.28 208.28c11.028 0 20 8.972 20 20v140c0 11.028-8.972 20-20 20h-240c-2.339 0-4.604.82-6.402 2.318l-43.598 36.331v-198.649c0-11.028 8.972-20 20-20z"/><path d="m222 191h105c5.523 0 10-4.477 10-10s-4.477-10-10-10h-105c-5.523 0-10 4.477-10 10s4.477 10 10 10z"/><path d="m443.698 105.426-38.87 57.891-19.636-28.051c-3.167-4.523-9.402-5.625-13.927-2.458-4.524 3.167-5.625 9.402-2.458 13.927l28 40c1.873 2.675 4.932 4.265 8.193 4.265h.098c3.297-.032 6.367-1.688 8.205-4.425l47-70c3.079-4.585 1.857-10.798-2.728-13.876s-10.799-1.858-13.877 2.727z"/><path d="m222 141h60c5.51 0 10-4.49 10-10s-4.49-10-10-10h-60c-5.51 0-10 4.49-10 10s4.49 10 10 10z"/><circle cx="327" cy="131" r="10"/><path d="m70 341h60c5.51 0 10-4.49 10-10s-4.49-10-10-10h-60c-5.51 0-10 4.49-10 10s4.49 10 10 10z"/><path d="m280 321h-60c-5.51 0-10 4.49-10 10s4.49 10 10 10h60c5.51 0 10-4.49 10-10s-4.49-10-10-10z"/><circle cx="175" cy="331" r="10"/><path d="m120 291h160c5.523 0 10-4.477 10-10s-4.477-10-10-10h-160c-5.523 0-10 4.477-10 10s4.477 10 10 10z"/></g></defs><g fi:class="KUsePattern"><pattern id="pattern_L1_28" width="350" height="350" patternUnits="userSpaceOnUse"><use xlink:href="#L1_28" x="-350" y="-350"/><use xlink:href="#L1_28" x="0" y="-350"/><use xlink:href="#L1_28" x="350" y="-350"/><use xlink:href="#L1_28" x="-350" y="0"/><use xlink:href="#L1_28" x="0" y="0"/><use xlink:href="#L1_28" x="350" y="0"/><use xlink:href="#L1_28" x="-350" y="350"/><use xlink:href="#L1_28" x="0" y="350"/><use xlink:href="#L1_28" x="350" y="350"/></pattern><rect x="0" y="0" width="100%" height="100%" fill="url(#pattern_L1_28)"/></g><g fi:class="KUsePattern"><pattern id="pattern_L1_29" width="350" height="350" patternUnits="userSpaceOnUse"><use xlink:href="#L1_29" x="-350" y="-350"/><use xlink:href="#L1_29" x="0" y="-350"/><use xlink:href="#L1_29" x="350" y="-350"/><use xlink:href="#L1_29" x="-350" y="0"/><use xlink:href="#L1_29" x="0" y="0"/><use xlink:href="#L1_29" x="350" y="0"/><use xlink:href="#L1_29" x="-350" y="350"/><use xlink:href="#L1_29" x="0" y="350"/><use xlink:href="#L1_29" x="350" y="350"/></pattern><rect x="0" y="0" width="100%" height="100%" fill="url(#pattern_L1_29)"/></g><g fi:class="KUsePattern"><pattern id="pattern_L1_30" width="350" height="350" patternUnits="userSpaceOnUse"><use xlink:href="#L1_30" x="-350" y="-350"/><use xlink:href="#L1_30" x="0" y="-350"/><use xlink:href="#L1_30" x="350" y="-350"/><use xlink:href="#L1_30" x="-350" y="0"/><use xlink:href="#L1_30" x="0" y="0"/><use xlink:href="#L1_30" x="350" y="0"/><use xlink:href="#L1_30" x="-350" y="350"/><use xlink:href="#L1_30" x="0" y="350"/><use xlink:href="#L1_30" x="350" y="350"/></pattern><rect x="0" y="0" width="100%" height="100%" fill="url(#pattern_L1_30)"/></g><g fi:class="KUsePattern"><pattern id="pattern_L1_31" width="350" height="350" patternUnits="userSpaceOnUse"><use xlink:href="#L1_31" x="-350" y="-350"/><use xlink:href="#L1_31" x="0" y="-350"/><use xlink:href="#L1_31" x="350" y="-350"/><use xlink:href="#L1_31" x="-350" y="0"/><use xlink:href="#L1_31" x="0" y="0"/><use xlink:href="#L1_31" x="350" y="0"/><use xlink:href="#L1_31" x="-350" y="350"/><use xlink:href="#L1_31" x="0" y="350"/><use xlink:href="#L1_31" x="350" y="350"/></pattern><rect x="0" y="0" width="100%" height="100%" fill="url(#pattern_L1_31)"/></g><g fi:class="KUsePattern"><pattern id="pattern_L1_32" width="350" height="350" patternUnits="userSpaceOnUse"><use xlink:href="#L1_32" x="-350" y="-350"/><use xlink:href="#L1_32" x="0" y="-350"/><use xlink:href="#L1_32" x="350" y="-350"/><use xlink:href="#L1_32" x="-350" y="0"/><use xlink:href="#L1_32" x="0" y="0"/><use xlink:href="#L1_32" x="350" y="0"/><use xlink:href="#L1_32" x="-350" y="350"/><use xlink:href="#L1_32" x="0" y="350"/><use xlink:href="#L1_32" x="350" y="350"/></pattern><rect x="0" y="0" width="100%" height="100%" fill="url(#pattern_L1_32)"/></g><g fi:class="KUsePattern"><pattern id="pattern_L1_33" width="350" height="350" patternUnits="userSpaceOnUse"><use xlink:href="#L1_33" x="-350" y="-350"/><use xlink:href="#L1_33" x="0" y="-350"/><use xlink:href="#L1_33" x="350" y="-350"/><use xlink:href="#L1_33" x="-350" y="0"/><use xlink:href="#L1_33" x="0" y="0"/><use xlink:href="#L1_33" x="350" y="0"/><use xlink:href="#L1_33" x="-350" y="350"/><use xlink:href="#L1_33" x="0" y="350"/><use xlink:href="#L1_33" x="350" y="350"/></pattern><rect x="0" y="0" width="100%" height="100%" fill="url(#pattern_L1_33)"/></g></svg>